<svg viewBox="0 0 64 64" xmlns="http://www.w3.org/2000/svg" role="img" aria-label="Windows Vault">
  <defs>
    <linearGradient id="winTile" x1="0" y1="0" x2="1" y2="1">
      <stop offset="0" stop-color="#22344f"/><stop offset="1" stop-color="#070d18"/>
    </linearGradient>
    <linearGradient id="winWhite" x1="0" y1="0" x2="0" y2="1">
      <stop offset="0" stop-color="#ffffff"/><stop offset=".55" stop-color="#eaf3ff"/><stop offset="1" stop-color="#c2dbfa"/>
    </linearGradient>
    <linearGradient id="winBlue" x1="0" y1="0" x2="0" y2="1">
      <stop offset="0" stop-color="#56a8f2"/><stop offset="1" stop-color="#1c5ca8"/>
    </linearGradient>
    <filter id="winShadow" x="-45%" y="-45%" width="190%" height="190%">
      <feDropShadow dx="0" dy="1.5" stdDeviation="1.7" flood-color="#03101f" flood-opacity=".55"/>
    </filter>
  </defs>
  <rect x="2" y="2" width="60" height="60" rx="16" fill="url(#winTile)"/>
  <rect x="2" y="2" width="60" height="26" rx="16" fill="#fff" opacity=".07"/>
  <rect x="2.75" y="2.75" width="58.5" height="58.5" rx="15" fill="none" stroke="#fff" stroke-opacity=".08"/>
  <g filter="url(#winShadow)"><path d="M32 13 16 19v13.2c0 9.4 6.6 15.3 16 17.8 9.4-2.5 16-8.4 16-17.8V19L32 13Z" fill="url(#winWhite)"/></g>
  <path d="M32 13 16 19v13.2c0 9.4 6.6 15.3 16 17.8V13Z" fill="#bcd6f6" opacity=".55"/>
  <g transform="translate(32 31) skewX(-9)" fill="url(#winBlue)">
    <rect x="-7" y="-7.2" width="6.2" height="6.2" rx="1"/>
    <rect x=".8" y="-7.2" width="6.2" height="6.2" rx="1"/>
    <rect x="-7" y=".9" width="6.2" height="6.2" rx="1"/>
    <rect x=".8" y=".9" width="6.2" height="6.2" rx="1"/>
  </g>
</svg>
